<?xml version="1.0"?>
<svg version="1.1" xmlns="http://www.w3.org/2000/svg" xmlns:xlink="http://www.w3.org/1999/xlink" width="215" height="181">
	<desc iVinci="yes" version="4.6" gridStep="20" showGrid="no" snapToGrid="no" codePlatform="0"/>
	<g id="Layer1" name="Layer 1" opacity="1">
		<g id="Shape1">
			<desc shapeID="1" type="0" basicInfo-basicType="0" basicInfo-roundedRectRadius="12" basicInfo-polygonSides="6" basicInfo-starPoints="5" bounding="rect(-34.3459,-41.9751,68.6917,83.9502)" text="" font-familyName="" font-pixelSize="20" font-bold="0" font-underline="0" font-alignment="1" strokeStyle="0" markerStart="0" markerEnd="0" shadowEnabled="0" shadowOffsetX="0" shadowOffsetY="2" shadowBlur="4" shadowOpacity="160" blurEnabled="0" blurRadius="4" transform="matrix(1.02911,0.0328972,0,0.953464,135.534,75.1524)" pers-center="0,0" pers-size="0,0" pers-start="0,0" pers-end="0,0" locked="0" mesh="" flag=""/>
			<path id="shapePath1" d="M100.188,34.0007 L111.598,34.3655 L111.598,73.3792 L153.707,35.7115 L169.88,36.2285 L133.946,67.337 L170.88,116.304 L155.648,115.817 L125.419,74.6928 L111.598,86.5109 L111.598,114.409 L100.188,114.044 L100.188,34.0007 Z" style="stroke:#ff5722;stroke-opacity:0.956863;stroke-width:0;stroke-linejoin:bevel;stroke-miterlimit:2;stroke-linecap:square;fill-rule:nonzero;fill:#ff5722;fill-opacity:1;"/>
		</g>
		<g id="Shape2">
			<desc shapeID="2" type="0" basicInfo-basicType="0" basicInfo-roundedRectRadius="12" basicInfo-polygonSides="6" basicInfo-starPoints="5" bounding="rect(-104.812,-87.8489,209.624,175.698)" text="" font-familyName="" font-pixelSize="20" font-bold="0" font-underline="0" font-alignment="1" strokeStyle="0" markerStart="0" markerEnd="0" shadowEnabled="0" shadowOffsetX="0" shadowOffsetY="2" shadowBlur="4" shadowOpacity="160" blurEnabled="0" blurRadius="4" transform="matrix(1,0,0,1,106.188,91.151)" pers-center="0,0" pers-size="0,0" pers-start="0,0" pers-end="0,0" locked="0" mesh="" flag=""/>
			<path id="shapePath2" d="M177.508,49.7155 C177.059,49.7155 176.835,49.4909 176.385,49.4909 C175.936,49.9401 175.487,50.3893 175.038,50.6139 C175.038,50.6139 175.262,50.6139 175.262,50.6139 C195.252,53.5338 206.932,64.5393 204.686,81.3846 C204.686,81.3846 204.686,81.6093 204.686,81.6093 C203.113,91.941 196.6,103.396 186.717,114.177 L186.043,115.075 C177.284,124.509 166.054,133.493 153.027,141.354 C152.577,141.579 152.353,141.803 151.904,142.028 C151.23,142.477 150.781,142.702 150.107,143.151 C148.759,142.702 147.412,142.252 145.839,141.579 C139.55,139.108 132.812,136.188 125.85,132.594 C115.518,127.428 104.512,120.915 93.282,113.278 C92.8328,112.829 92.159,112.605 91.7098,112.155 C90.8114,111.482 89.6884,110.808 88.7899,110.134 C88.7899,109.909 89.0145,109.46 89.0145,109.236 C89.4637,107.888 89.6884,106.316 89.6884,104.743 C89.6884,103.62 89.4637,102.273 89.2391,101.15 C87.8915,94.1871 82.7256,89.0212 76.6613,89.0212 C75.5383,89.0212 74.6399,89.2458 73.5168,89.4704 C71.2708,90.1442 69.0248,91.4918 67.4525,93.5132 C67.4525,93.7379 67.2279,93.7379 67.2279,93.9625 C65.2065,92.3902 63.1851,90.818 61.3882,89.0212 L58.9176,86.7751 C43.6445,73.9727 31.0667,60.9457 22.5317,49.0417 C16.9166,40.9559 12.8738,33.3194 10.8523,27.0305 C9.95392,23.4368 9.5047,20.0677 10.1785,17.1479 C10.8523,14.0034 12.6492,11.7574 15.3444,10.1852 C26.1254,4.79466 45.666,10.6344 55.7731,14.4526 C55.7731,15.351 55.9977,16.2495 56.447,17.1479 C57.7946,20.2924 60.939,21.8646 63.4097,20.7415 C64.3081,20.2924 64.9819,19.6185 65.4311,18.4955 C71.2708,21.1908 77.5597,24.1106 83.8486,27.4797 C86.7685,29.0519 89.6884,30.6241 92.8328,32.421 C93.0574,32.6456 93.5066,32.6456 93.7312,32.8702 C93.7312,32.421 93.9558,31.9717 93.9558,31.7472 C93.7312,31.5226 93.282,31.2979 93.0574,31.2979 C88.1161,28.1535 83.1748,25.2336 78.2336,22.5384 C73.9661,20.2924 69.9232,18.2709 65.8803,16.4741 C65.8803,15.351 65.8803,14.0034 65.2065,12.8804 C63.8589,9.73596 60.7144,8.16373 58.2438,9.28674 C57.1208,9.96056 56.2224,10.859 55.9977,12.2066 C26.7992,0.302582 5.23724,-0.146622 1.86816,13.7788 C1.41898,15.351 1.41898,17.1479 1.41898,19.1693 C0.295929,35.5654 21.1841,63.8655 52.8533,91.4918 C46.1152,96.8823 40.0508,102.273 34.8849,107.888 C23.8794,119.792 16.4674,132.37 14.8952,143.825 C14.446,146.295 14.446,148.766 14.6706,151.012 C16.9166,177.515 54.6501,186.949 104.288,171.675 C108.78,170.328 113.272,168.756 117.539,167.183 C121.807,165.611 125.85,163.814 129.892,162.017 C137.529,158.648 144.941,154.606 151.904,150.563 C175.712,158.199 192.332,156.852 195.477,144.723 C195.926,143.151 195.926,141.354 195.926,139.557 C196.151,135.065 195.028,129.674 192.332,123.835 C191.659,122.712 191.209,121.589 190.536,120.241 C201.766,108.113 208.953,95.7593 210.75,84.0799 C212.996,65.2132 199.969,53.0845 177.508,49.7155 M55.7731,93.7379 C58.4684,95.9839 61.1636,98.2299 64.0835,100.476 C63.8589,101.824 63.6343,103.171 63.6343,104.743 C63.6343,113.503 69.474,120.466 76.6613,120.466 C80.0304,120.466 83.1748,118.894 85.6455,116.198 C86.9931,117.097 88.1161,117.995 89.4637,118.669 C91.2606,119.792 93.0574,120.915 94.8542,122.038 C105.635,129.001 116.416,134.84 126.299,139.782 C130.566,141.803 134.609,143.6 138.652,145.397 C140,146.071 141.572,146.52 142.919,147.194 C137.978,149.889 133.037,152.135 127.871,154.381 C122.93,156.402 117.988,158.424 112.823,160.221 C111.475,160.67 109.903,161.119 108.555,161.568 C63.4097,175.269 29.0453,166.734 27.2484,142.702 C27.0238,140.68 27.2484,138.434 27.473,136.188 C29.4945,122.487 40.0508,107.439 55.7731,93.7379 M190.086,123.386 C192.782,129.45 193.68,134.84 192.782,139.108 C190.536,148.99 177.733,150.787 159.316,145.846 C170.77,138.209 181.102,129.899 189.188,121.14 C189.413,122.038 189.862,122.712 190.086,123.386 Z" style="stroke:#ff5722;stroke-opacity:0.956863;stroke-width:1;stroke-linejoin:miter;stroke-miterlimit:2;stroke-linecap:round;fill-rule:nonzero;fill:#ff5722;fill-opacity:1;"/>
		</g>
	</g>
</svg>
