<?xml version="1.0"?>
<svg version="1.1" xmlns="http://www.w3.org/2000/svg" xmlns:xlink="http://www.w3.org/1999/xlink" width="300" height="300">
    <desc iVinci="yes" version="4.6" gridStep="20" showGrid="no" snapToGrid="no" codePlatform="0"/>
    <g id="Layer1" name="Layer 1" opacity="1">
        <g id="Shape1">
            <desc shapeID="1" type="0" basicInfo-basicType="0" basicInfo-roundedRectRadius="12" basicInfo-polygonSides="6" basicInfo-starPoints="5" bounding="rect(-34.3462,-41.9755,68.6923,83.951)" text="" font-familyName="" font-pixelSize="20" font-bold="0" font-underline="0" font-alignment="1" strokeStyle="0" markerStart="0" markerEnd="0" shadowEnabled="0" shadowOffsetX="0" shadowOffsetY="2" shadowBlur="4" shadowOpacity="160" blurEnabled="0" blurRadius="4" transform="matrix(1.02911,0.0328972,0,0.953464,180.346,101)" pers-center="0,0" pers-size="0,0" pers-start="0,0" pers-end="0,0" locked="0" mesh="" flag=""/>
            <path id="shapePath1" d="M145,59.848 L156.41,60.213 L156.41,99.227 L198.519,61.559 L214.692,62.076 L178.758,93.185 L215.692,142.152 L200.46,141.665 L170.231,100.54 L156.41,112.359 L156.41,140.257 L145,139.892 L145,59.848 Z" style="stroke:#ffa300;stroke-opacity:0.956863;stroke-width:0;stroke-linejoin:bevel;stroke-miterlimit:2;stroke-linecap:square;fill-rule:evenodd;fill:#f58227;fill-opacity:1;"/>
        </g>
        <g id="Shape2">
            <desc shapeID="2" type="0" basicInfo-basicType="0" basicInfo-roundedRectRadius="12" basicInfo-polygonSides="6" basicInfo-starPoints="5" bounding="rect(-104.812,-87.8492,209.624,175.699)" text="" font-familyName="" font-pixelSize="20" font-bold="0" font-underline="0" font-alignment="1" strokeStyle="0" markerStart="0" markerEnd="0" shadowEnabled="0" shadowOffsetX="0" shadowOffsetY="2" shadowBlur="4" shadowOpacity="160" blurEnabled="0" blurRadius="4" transform="matrix(1,0,0,1,151,116.999)" pers-center="0,0" pers-size="0,0" pers-start="0,0" pers-end="0,0" locked="0" mesh="" flag=""/>
            <path id="shapePath2" d="M222.32,75.563 C221.871,75.563 221.647,75.339 221.197,75.339 C220.748,75.788 220.299,76.237 219.85,76.462 C219.85,76.462 220.074,76.462 220.074,76.462 C240.064,79.381 251.744,90.387 249.498,107.232 C249.498,107.232 249.498,107.457 249.498,107.457 C247.925,117.789 241.412,129.244 231.529,140.025 L230.855,140.923 C222.096,150.357 210.866,159.341 197.839,167.202 C197.389,167.427 197.165,167.651 196.716,167.876 C196.042,168.325 195.593,168.55 194.919,168.999 C193.571,168.55 192.224,168.1 190.651,167.427 C184.362,164.956 177.624,162.036 170.662,158.442 C160.33,153.276 149.324,146.763 138.094,139.126 C137.645,138.677 136.971,138.453 136.522,138.003 C135.623,137.33 134.5,136.656 133.602,135.982 C133.602,135.757 133.827,135.308 133.827,135.084 C134.276,133.736 134.5,132.164 134.5,130.591 C134.5,129.468 134.276,128.121 134.051,126.998 C132.704,120.035 127.538,114.869 121.473,114.869 C120.35,114.869 119.452,115.093 118.329,115.318 C116.083,115.992 113.837,117.339 112.265,119.361 C112.265,119.586 112.04,119.586 112.04,119.81 C110.019,118.238 107.997,116.666 106.2,114.869 L103.73,112.623 C88.457,99.82 75.879,86.793 67.344,74.889 C61.729,66.804 57.686,59.167 55.664,52.878 C54.766,49.284 54.317,45.915 54.991,42.996 C55.664,39.851 57.461,37.605 60.156,36.033 C70.937,30.642 90.478,36.482 100.585,40.3 C100.585,41.199 100.81,42.097 101.259,42.996 C102.607,46.14 105.751,47.712 108.222,46.589 C109.12,46.14 109.794,45.466 110.243,44.343 C116.083,47.038 122.372,49.958 128.661,53.327 C131.581,54.9 134.5,56.472 137.645,58.269 C137.869,58.493 138.319,58.493 138.543,58.718 C138.543,58.269 138.768,57.819 138.768,57.595 C138.543,57.37 138.094,57.146 137.869,57.146 C132.928,54.001 127.987,51.081 123.046,48.386 C118.778,46.14 114.735,44.119 110.692,42.322 C110.692,41.199 110.692,39.851 110.019,38.728 C108.671,35.584 105.526,34.011 103.056,35.134 C101.933,35.808 101.034,36.707 100.81,38.054 C71.611,26.15 50.049,25.701 46.68,39.626 C46.231,41.199 46.231,42.996 46.231,45.017 C45.108,61.413 65.996,89.713 97.665,117.339 C90.927,122.73 84.863,128.121 79.697,133.736 C68.691,145.64 61.279,158.218 59.707,169.673 C59.258,172.143 59.258,174.614 59.483,176.86 C61.729,203.363 99.462,212.797 149.1,197.523 C153.592,196.176 158.084,194.604 162.351,193.031 C166.619,191.459 170.662,189.662 174.704,187.865 C182.341,184.496 189.753,180.454 196.716,176.411 C220.524,184.047 237.144,182.7 240.289,170.571 C240.738,168.999 240.738,167.202 240.738,165.405 C240.963,160.913 239.84,155.522 237.144,149.683 C236.471,148.56 236.021,147.437 235.348,146.089 C246.578,133.961 253.765,121.607 255.562,109.928 C257.808,91.061 244.781,78.932 222.32,75.563 M100.585,119.586 C103.28,121.832 105.976,124.078 108.896,126.324 C108.671,127.672 108.446,129.019 108.446,130.591 C108.446,139.351 114.286,146.314 121.473,146.314 C124.842,146.314 127.987,144.742 130.458,142.046 C131.805,142.945 132.928,143.843 134.276,144.517 C136.073,145.64 137.869,146.763 139.666,147.886 C150.447,154.849 161.228,160.688 171.111,165.63 C175.378,167.651 179.421,169.448 183.464,171.245 C184.812,171.919 186.384,172.368 187.731,173.042 C182.79,175.737 177.849,177.983 172.683,180.229 C167.742,182.25 162.8,184.272 157.635,186.069 C156.287,186.518 154.715,186.967 153.367,187.416 C108.222,201.117 73.857,192.582 72.06,168.55 C71.836,166.528 72.06,164.282 72.285,162.036 C74.307,148.335 84.863,133.287 100.585,119.586 M234.898,149.234 C237.594,155.298 238.492,160.688 237.594,164.956 C235.348,174.838 222.545,176.635 204.128,171.694 C215.582,164.057 225.914,155.747 234,146.988 C234.225,147.886 234.674,148.56 234.898,149.234 Z" style="stroke:#ffa300;stroke-opacity:0.956863;stroke-width:1;stroke-linejoin:miter;stroke-miterlimit:2;stroke-linecap:round;fill-rule:evenodd;fill:#f58227;fill-opacity:1;"/>
        </g>
        <g id="Shape3">
            <desc shapeID="3" type="2" basicInfo-basicType="0" basicInfo-roundedRectRadius="12" basicInfo-polygonSides="6" basicInfo-starPoints="5" bounding="rect(-121,-54,242,108)" text="平凡之路 快屏相伴" font-familyName="魏碑-繁" font-pixelSize="27" font-bold="1" font-underline="0" font-alignment="1" strokeStyle="0" markerStart="0" markerEnd="0" shadowEnabled="0" shadowOffsetX="0" shadowOffsetY="2" shadowBlur="4" shadowOpacity="160" blurEnabled="0" blurRadius="4" transform="matrix(1,0,0,1,157.5,240.07)" pers-center="0,0" pers-size="0,0" pers-start="0,0" pers-end="0,0" locked="0" mesh="" flag=""/>
            <path id="shapePath3" d="M57.303,237.151 C58.68,235.828 60.165,234.289 61.731,232.48 C61.947,232.21 62.217,232.21 62.541,232.588 C62.865,232.966 63.135,233.29 63.378,233.506 C63.594,233.776 63.486,233.992 63.054,234.154 C62.379,234.613 61.623,235.234 60.84,235.936 C60.057,236.692 59.274,237.259 58.599,237.637 C58.005,237.934 57.573,238.15 57.276,238.258 C57.276,238.393 57.276,238.528 57.303,238.663 C59.247,238.42 61.137,238.258 62.946,238.177 C64.728,238.123 65.808,238.015 66.132,237.853 C66.294,237.799 66.456,237.934 66.645,238.258 C66.753,238.636 66.915,238.906 67.158,239.014 C67.374,239.176 67.455,239.608 67.455,240.256 C67.401,240.958 67.158,241.201 66.807,240.931 C64.053,240.229 60.84,240.094 57.195,240.445 C57.087,242.389 56.952,245.494 56.844,249.679 C56.844,250.327 56.925,250.813 57.087,251.056 C57.195,251.326 57.033,251.461 56.682,251.488 C56.196,251.569 55.71,251.569 55.278,251.488 C54.954,251.488 54.9,251.38 55.143,251.191 C55.359,250.975 55.467,250.543 55.467,249.895 C55.467,246.25 55.44,243.145 55.44,240.607 C51.687,241.093 48.771,241.687 46.692,242.362 C46.422,242.524 46.044,242.227 45.558,241.363 C45.099,240.58 45.369,240.31 46.395,240.58 C48.933,240.04 51.93,239.473 55.413,238.96 C55.359,237.475 55.332,236.233 55.386,235.234 C54.9,235.666 54.306,236.125 53.604,236.557 C52.605,237.124 51.795,237.691 51.174,238.15 C50.958,238.636 50.688,238.636 50.391,238.123 C50.067,237.664 49.797,237.232 49.581,236.854 C49.311,236.503 49.284,236.314 49.554,236.26 C49.878,236.287 50.526,236.098 51.579,235.72 C52.47,235.369 53.739,234.964 55.386,234.532 C55.332,233.236 55.305,232.399 55.305,232.102 C54.927,232.156 54.63,232.129 54.495,232.021 C53.955,231.805 53.199,231.886 52.254,232.237 C51.822,232.426 51.579,232.264 51.579,231.778 C51.525,231.265 51.39,230.779 51.201,230.293 C51.012,229.834 51.255,229.672 52.038,229.78 C54.036,229.78 55.791,229.591 57.33,229.186 C58.869,228.835 60.057,228.646 60.921,228.592 C61.245,228.592 61.38,228.835 61.407,229.348 C61.407,229.888 61.299,230.158 61.056,230.212 C59.679,230.671 58.437,231.076 57.357,231.508 C57.357,231.535 57.357,231.562 57.357,231.616 C57.357,233.776 57.33,235.612 57.303,237.151 M76.824,241.444 C77.715,239.176 78.093,236.098 77.985,232.21 C77.823,231.589 78.201,231.373 79.227,231.535 C79.686,231.643 80.118,231.643 80.523,231.508 C80.901,231.427 81.603,231.157 82.683,230.725 C83.682,230.266 84.627,230.104 85.545,230.266 C86.112,230.32 86.598,230.455 87.003,230.644 C87.3,230.86 87.219,231.238 86.706,231.832 C86.382,232.156 86.139,232.507 86.058,232.939 C85.896,233.371 85.626,234.586 85.302,236.557 C84.951,238.501 84.951,240.661 85.356,243.01 C85.68,244.171 86.139,245.116 86.814,245.791 C87.435,246.493 88.407,246.925 89.784,247.087 C91.107,247.276 91.917,247.168 92.268,246.817 C92.592,246.277 92.781,245.656 92.862,244.9 C92.862,244.171 92.781,242.794 92.673,240.742 C92.511,239.959 92.376,239.338 92.322,238.933 C92.214,238.528 92.322,238.501 92.646,238.852 C92.943,239.176 93.348,239.905 93.834,240.958 C94.455,242.416 94.806,243.928 94.887,245.467 C94.941,246.979 95.076,248.275 95.292,249.274 C95.4,249.679 95.292,249.814 95.049,249.733 C94.779,249.679 94.428,249.679 94.05,249.679 C93.429,249.679 92.916,249.679 92.565,249.571 C92.133,249.463 91.431,249.382 90.486,249.274 C89.46,249.166 88.245,248.761 86.787,247.978 C85.626,247.195 84.924,246.52 84.654,245.872 C84.33,245.278 84.087,244.603 83.952,243.82 C83.547,241.498 83.385,239.284 83.52,237.178 C83.628,235.099 83.628,233.83 83.574,233.398 C83.574,232.831 83.142,232.615 82.305,232.75 C81.414,232.912 80.766,233.128 80.442,233.371 C80.037,233.641 79.767,233.884 79.686,234.073 C79.524,234.478 79.362,235.342 79.254,236.665 C79.254,236.692 79.281,236.719 79.335,236.719 C80.037,237.07 81.117,237.745 82.629,238.69 C82.872,238.825 82.953,239.23 82.899,239.932 C82.845,240.607 82.656,241.093 82.278,241.336 C81.9,241.606 81.657,241.633 81.576,241.417 C81.495,241.228 81.198,240.742 80.712,239.959 C80.091,239.041 79.551,238.312 79.146,237.745 C78.984,238.987 78.714,240.067 78.39,240.985 C77.985,242.065 77.769,242.983 77.796,243.712 C77.796,244.198 77.472,244.711 76.878,245.305 C76.176,245.899 75.285,246.466 74.178,246.925 C72.288,247.357 71.613,247.33 72.207,246.817 C74.799,244.792 76.311,243.037 76.824,241.444 M108.144,233.182 C107.604,232.021 107.442,231.076 107.685,230.293 C108.117,229.213 108.576,228.916 109.089,229.429 C109.251,229.564 109.44,229.888 109.683,230.374 C109.872,230.887 110.142,231.292 110.52,231.643 C110.844,232.021 111.087,232.372 111.33,232.696 C111.438,232.831 111.384,233.047 111.168,233.344 C110.952,233.614 110.601,233.722 110.061,233.641 C109.548,233.56 109.089,233.506 108.765,233.506 C108.414,233.506 108.198,233.398 108.144,233.182 M112.059,239.338 C109.656,241.039 107.55,242.173 105.876,242.686 C105.606,242.767 105.336,242.848 105.147,242.902 C105.336,242.956 105.552,243.037 105.822,243.091 C106.497,243.361 107.28,243.577 108.144,243.793 C108.657,244.036 109.683,244.468 111.195,245.035 C112.734,245.656 114.354,246.007 116.109,246.169 C117.837,246.331 119.862,246.844 122.211,247.654 C122.535,247.789 122.562,247.951 122.319,248.113 C121.158,248.491 120.213,248.761 119.511,248.923 C118.728,249.085 117.702,249.112 116.514,249.031 C115.272,248.977 114.354,248.923 113.841,248.842 C113.247,248.788 112.869,248.464 112.653,247.87 C111.951,246.601 110.844,245.872 109.332,245.71 C108.279,245.629 107.361,245.44 106.578,245.116 C105.795,244.819 104.85,244.603 103.797,244.495 C102.744,244.36 101.853,244.549 101.178,245.035 C100.746,245.494 100.314,245.332 99.882,244.549 C99.369,243.793 99.315,243.361 99.72,243.199 C100.098,243.037 101.043,242.929 102.582,242.821 C102.636,242.821 102.744,242.821 102.933,242.794 C104.553,242.254 106.227,241.444 107.901,240.391 C109.548,239.338 110.601,238.555 111.087,238.015 C111.573,237.502 111.924,237.124 112.167,236.854 C112.383,236.611 112.437,236.422 112.383,236.314 C112.329,236.26 111.546,236.449 110.034,236.827 C108.522,237.286 106.659,237.88 104.526,238.69 C103.797,238.987 103.311,238.96 103.095,238.501 C102.852,238.069 102.636,237.637 102.528,237.124 C102.366,236.638 102.582,236.449 103.149,236.584 C103.581,236.638 104.553,236.476 106.092,236.098 C107.55,235.774 109.224,235.369 111.114,234.829 C112.977,234.37 114.192,234.235 114.786,234.424 C115.326,234.613 115.92,234.91 116.622,235.288 C117.108,235.423 117.216,235.612 117,235.936 C116.73,236.26 116.46,236.503 116.19,236.611 C115.812,236.746 114.435,237.691 112.059,239.338 M129.042,237.124 C127.989,235.693 127.422,234.235 127.341,232.642 C127.125,232.291 127.206,232.129 127.638,232.129 C127.881,232.129 128.799,231.886 130.365,231.4 C131.904,230.941 133.173,230.806 134.226,230.995 C135.9,231.508 136.602,231.967 136.305,232.264 C135.819,232.534 135.36,233.29 134.901,234.451 C134.442,235.612 134.199,236.476 134.199,236.935 C134.145,237.205 133.983,237.313 133.713,237.232 C133.2,237.232 132.714,237.259 132.282,237.259 C132.282,237.313 132.282,237.367 132.282,237.367 C132.282,237.556 132.255,237.988 132.255,238.717 C132.633,238.663 133.173,238.501 133.902,238.231 C134.226,238.015 134.442,238.15 134.577,238.609 C134.685,239.068 134.604,239.365 134.388,239.419 C133.362,239.905 132.66,240.256 132.255,240.472 C132.201,241.417 132.201,242.173 132.255,242.659 C133.335,241.984 134.064,241.552 134.469,241.39 C134.577,241.336 134.658,241.444 134.739,241.714 C134.739,241.984 134.631,242.227 134.442,242.416 C133.875,243.01 133.308,243.55 132.741,244.063 L132.768,244.09 L132.714,244.09 C131.985,244.711 131.256,245.305 130.608,245.764 C129.285,246.709 128.421,247.384 128.043,247.843 C127.773,248.248 127.341,248.194 126.747,247.627 C126.18,247.06 125.883,246.709 125.91,246.52 C125.91,246.331 126.099,246.169 126.477,246.034 C126.99,245.737 127.557,245.467 128.151,245.143 C127.422,241.444 127.206,239.527 127.53,239.338 C127.692,239.257 128.07,239.311 128.718,239.527 C129.285,239.743 129.501,239.905 129.339,240.013 C128.961,240.256 128.88,241.147 129.15,242.605 C129.258,243.415 129.339,244.009 129.447,244.441 C129.771,244.225 130.095,244.009 130.473,243.793 C130.581,243.577 130.662,242.389 130.743,240.202 C130.743,238.987 130.689,238.123 130.581,237.61 C130.311,237.718 130.068,237.826 129.879,237.907 C129.663,238.015 129.555,237.988 129.555,237.826 C129.501,237.664 129.312,237.448 129.042,237.124 M132.201,235.531 C133.335,234.478 133.524,233.452 132.876,232.453 C132.606,232.21 132.066,232.21 131.256,232.426 C130.419,232.696 129.906,232.966 129.744,233.182 C129.258,234.343 129.42,235.315 130.203,236.044 C130.257,236.125 130.554,236.071 131.121,235.909 C131.661,235.774 132.012,235.639 132.201,235.531 M137.952,248.842 C136.737,247.303 136.089,245.737 136.035,244.036 C135.711,243.766 135.711,243.577 136.089,243.442 C136.413,243.469 137.547,243.226 139.491,242.74 C141.381,242.281 142.947,242.227 144.189,242.524 C146.079,243.199 146.835,243.685 146.457,244.036 C145.971,244.306 145.458,245.035 144.918,246.25 C144.351,247.492 144.054,248.356 144.081,248.896 C144.027,249.193 143.838,249.328 143.568,249.274 C141.462,249.085 139.842,249.22 138.735,249.706 C138.519,249.814 138.411,249.787 138.411,249.598 C138.357,249.436 138.195,249.193 137.952,248.842 M141.921,247.357 C143.082,246.358 143.325,245.386 142.623,244.387 C142.353,243.982 141.678,243.874 140.571,244.036 C139.41,244.225 138.708,244.441 138.438,244.684 C137.952,245.899 138.141,246.898 139.032,247.654 C139.14,247.762 139.572,247.789 140.328,247.681 C141.084,247.6 141.597,247.492 141.921,247.357 M135.252,237.205 C136.629,234.937 138.06,232.264 139.653,229.213 C139.761,228.889 140.031,228.862 140.436,229.078 C140.814,229.348 141.138,229.564 141.408,229.726 C141.678,229.915 141.624,230.104 141.3,230.374 C140.787,230.995 140.274,231.67 139.842,232.426 C140.787,232.156 141.921,231.886 143.244,231.643 C143.757,231.697 144.135,231.832 144.351,232.021 C144.513,232.21 144.783,232.399 145.242,232.669 C145.62,232.939 145.539,233.29 144.999,233.641 C144.324,234.019 143.703,234.694 143.244,235.639 C142.866,236.233 142.38,236.908 141.867,237.718 C142.191,238.015 142.461,238.312 142.758,238.582 C143.19,239.014 144.135,239.527 145.647,240.067 C147.051,240.634 148.104,241.147 148.86,241.525 C149.373,241.849 149.643,242.092 149.67,242.2 C149.616,242.362 149.4,242.443 149.076,242.47 C147.051,242.632 145.188,242.524 143.46,242.173 C143.217,242.2 143.028,241.768 142.974,240.931 C142.866,240.094 142.38,239.473 141.543,239.095 C141.327,239.014 141.138,238.96 140.976,238.852 C140.814,238.987 140.679,239.149 140.625,239.284 C139.41,240.769 137.925,242.011 136.224,242.983 C135.279,243.415 134.577,243.631 134.172,243.685 C133.686,243.766 134.064,243.361 135.306,242.443 C137.196,240.877 138.708,239.392 139.815,237.988 C139.707,237.934 139.626,237.853 139.572,237.772 C139.086,237.232 138.357,236.773 137.385,236.395 C137.277,236.341 137.196,236.287 137.196,236.233 C136.575,236.908 136.062,237.394 135.711,237.637 C134.928,238.096 134.766,237.961 135.252,237.205 M140.841,236.557 C141.84,234.802 142.218,233.803 141.975,233.479 C141.435,233.155 140.814,233.155 140.112,233.479 C139.437,233.857 138.951,234.181 138.735,234.397 C138.681,234.451 138.627,234.478 138.6,234.505 C138.492,234.613 138.411,234.721 138.384,234.775 C138.6,234.991 138.843,235.207 139.113,235.423 C139.599,235.828 140.112,236.287 140.706,236.719 C140.706,236.692 140.733,236.638 140.841,236.557 M166.869,238.906 C167.436,237.637 168.219,236.233 169.245,234.667 C169.326,234.559 169.407,234.532 169.515,234.559 C169.569,234.613 169.596,234.721 169.596,234.829 C169.245,236.827 169.137,238.393 169.326,239.5 C169.596,240.229 169.488,240.607 169.083,240.607 C168.597,240.607 168.03,240.418 167.355,240.04 C166.68,239.662 166.383,239.419 166.545,239.284 C166.653,239.176 166.761,239.041 166.869,238.906 M170.919,240.823 C170.973,237.34 171.054,233.641 171.189,229.753 C171.135,229.159 171.378,228.889 171.918,228.916 C172.458,228.97 172.998,229.159 173.619,229.429 C173.835,229.564 173.835,229.726 173.727,229.888 C173.511,230.05 173.349,230.347 173.295,230.779 C173.079,231.481 172.89,232.75 172.782,234.586 C172.998,234.559 173.592,234.289 174.591,233.695 C174.861,233.533 175.023,233.776 175.131,234.37 C175.239,234.964 175.131,235.342 174.861,235.504 C173.592,236.557 172.809,237.259 172.593,237.61 C172.539,237.772 172.512,237.907 172.566,238.069 C172.35,241.876 172.242,244.279 172.269,245.278 C172.269,246.304 172.296,247.384 172.377,248.518 C172.701,249.463 172.701,249.949 172.377,249.949 C171.729,250.03 171.162,250.003 170.649,249.868 C170.244,249.787 170.109,249.679 170.271,249.49 C170.379,249.301 170.433,249.031 170.46,248.653 C170.676,246.925 170.811,244.333 170.919,240.823 M181.179,243.955 C180.855,243.631 180.963,243.496 181.53,243.496 C183.744,244.414 185.634,245.467 187.254,246.628 C187.389,246.736 187.362,247.249 187.227,248.167 C187.011,249.112 186.741,249.652 186.444,249.733 C186.147,249.841 185.931,249.76 185.823,249.517 C185.661,249.247 185.445,248.923 185.175,248.437 C183.501,246.493 182.151,245.008 181.179,243.955 M188.496,241.849 C186.498,241.39 184.176,241.336 181.584,241.66 C180.936,241.714 180.342,241.795 179.775,241.903 C179.667,242.227 179.586,242.524 179.532,242.821 C178.965,244.603 178.83,245.575 179.154,245.764 C179.37,245.926 178.857,246.601 177.642,247.735 C176.427,248.896 175.266,249.436 174.213,249.382 C173.889,249.436 173.727,249.436 173.727,249.328 C173.673,249.247 173.835,249.112 174.186,248.842 C175.671,247.789 176.913,246.358 177.912,244.576 C178.074,244.036 178.236,243.226 178.425,242.119 C176.805,242.389 175.455,242.74 174.429,243.118 C174.159,243.28 173.835,242.983 173.403,242.254 C172.917,241.498 173.16,241.255 174.105,241.471 C175.428,241.174 176.94,240.85 178.641,240.472 C178.749,239.446 178.857,238.204 178.992,236.719 L178.992,236.692 C177.831,237.097 176.994,237.475 176.508,237.799 C175.941,238.069 175.725,237.88 175.887,237.259 C176.049,236.638 176.13,236.179 176.211,235.855 C176.265,235.585 176.481,235.477 176.913,235.558 C177.264,235.504 177.993,235.315 179.1,234.964 C179.262,231.913 179.289,229.969 179.181,229.078 C179.019,228.565 179.37,228.43 180.261,228.673 C181.098,228.916 181.449,229.186 181.314,229.429 C181.098,229.753 180.882,231.427 180.693,234.478 C181.8,234.235 182.853,234.127 183.825,234.154 C184.23,234.208 184.824,234.424 185.58,234.775 C186.309,235.153 186.525,235.369 186.228,235.423 C185.904,235.585 185.391,236.233 184.743,237.394 C184.203,238.231 184.041,238.987 184.257,239.581 C184.689,239.527 185.121,239.5 185.634,239.473 C186.849,239.392 187.578,239.284 187.848,239.176 C188.01,239.122 188.145,239.257 188.28,239.554 C188.388,239.878 188.523,240.094 188.766,240.175 C188.982,240.283 189.063,240.661 189.063,241.228 C189.009,241.849 188.82,242.065 188.496,241.849 M182.718,236.017 C182.34,235.801 181.638,235.855 180.585,236.152 C180.45,237.691 180.288,239.041 180.126,240.202 C180.585,240.094 181.125,240.04 181.719,239.932 C181.719,239.932 181.719,239.932 181.746,239.932 C182.07,239.446 182.34,238.879 182.583,238.123 C182.853,237.124 182.853,236.449 182.718,236.017 M207.774,250.273 C207.774,247.249 207.747,244.873 207.747,243.172 C207.342,243.226 206.991,243.307 206.721,243.361 C205.776,243.523 204.885,243.712 204.102,243.901 C203.94,244.36 203.751,244.792 203.562,245.224 C203.346,246.007 203.076,246.655 202.698,247.06 C202.266,247.519 202.158,247.87 202.374,248.086 C202.482,248.302 201.969,248.68 200.916,249.166 C199.809,249.679 198.972,249.895 198.432,249.733 C197.838,249.652 197.838,249.436 198.486,249.112 C198.54,249.085 198.81,248.869 199.404,248.437 C199.917,248.032 200.457,247.519 201.024,246.844 C201.51,246.196 201.942,245.359 202.32,244.279 C201.105,244.576 200.16,244.792 199.512,245.008 C198.702,245.224 198.243,245.467 198.108,245.71 C197.838,246.007 197.541,245.845 197.244,245.224 C196.92,244.603 196.92,244.252 197.271,244.171 C198,244.036 199.431,243.604 201.591,242.875 C201.915,242.74 202.239,242.605 202.671,242.497 C202.779,241.606 202.752,240.904 202.644,240.31 C202.158,240.472 201.888,240.607 201.807,240.661 C201.213,241.066 200.862,241.12 200.808,240.823 C200.7,240.526 200.538,240.202 200.322,239.905 C200.052,239.581 200.052,239.419 200.322,239.365 C200.538,239.365 200.754,239.338 200.997,239.284 C202.05,238.987 203.589,238.582 205.641,238.069 C206.748,236.854 207.774,235.45 208.719,233.749 C208.368,233.857 207.936,233.911 207.504,233.911 C204.426,234.019 202.212,234.64 200.889,235.774 C200.484,236.287 200.187,236.908 200.079,237.718 C199.917,238.501 199.431,239.257 198.621,239.986 C197.73,240.715 197.433,241.471 197.73,242.281 C197.838,242.578 197.298,243.118 196.083,243.847 C194.868,244.603 193.923,245.035 193.221,245.17 C192.168,245.467 192.033,245.197 192.897,244.414 C195.246,242.254 196.893,240.283 197.811,238.555 C199.404,235.315 200.214,232.561 200.268,230.32 C200.052,229.996 200.052,229.861 200.322,229.807 C200.592,229.807 201.321,229.645 202.59,229.321 C203.805,228.997 205.155,228.754 206.64,228.484 C208.125,228.268 209.205,228.295 209.88,228.511 C211.419,229.294 211.797,229.861 210.987,230.131 C209.853,231.184 209.34,232.156 209.502,232.966 C209.502,233.074 209.502,233.182 209.502,233.236 C209.502,233.29 209.529,233.344 209.637,233.344 C209.934,233.695 210.258,233.965 210.636,234.154 C210.96,234.37 210.96,234.532 210.744,234.64 C210.528,234.721 210.231,234.991 209.907,235.45 C209.556,235.882 209.097,236.341 208.638,236.8 C208.368,237.043 208.179,237.259 208.098,237.475 C208.989,237.259 210.096,236.989 211.446,236.692 C211.662,236.584 211.851,236.935 212.013,237.799 C212.094,238.663 211.851,238.96 211.203,238.663 C210.69,238.717 210.123,238.798 209.61,238.879 C209.556,239.041 209.529,239.23 209.556,239.419 C209.502,240.094 209.475,240.688 209.502,241.228 C210.069,241.228 210.744,241.228 211.473,241.228 C212.796,241.228 213.579,241.201 213.876,241.12 C214.2,240.985 214.497,241.228 214.875,241.822 C215.199,242.416 215.334,242.956 215.307,243.388 C215.253,243.82 215.118,244.009 214.956,243.901 C213.903,243.442 212.499,243.172 210.798,243.118 C210.258,243.091 209.826,243.091 209.448,243.091 C209.394,243.388 209.367,243.631 209.421,243.901 C209.367,245.008 209.259,247.06 209.124,250.057 C209.124,250.705 209.178,251.164 209.34,251.38 C209.448,251.623 209.313,251.758 208.935,251.785 C208.476,251.866 208.017,251.866 207.612,251.812 C207.315,251.812 207.261,251.704 207.531,251.461 C207.72,251.299 207.801,250.894 207.774,250.273 M202.293,232.885 C202.833,233.263 204.453,232.966 207.261,231.967 C207.531,231.859 207.72,231.535 207.882,230.968 C208.044,230.401 207.99,230.023 207.72,229.888 C205.668,229.618 204.102,229.861 203.049,230.536 C202.833,230.752 202.617,231.13 202.428,231.724 C202.158,232.318 202.104,232.723 202.293,232.885 M204.399,242.011 C205.506,241.741 206.613,241.525 207.72,241.309 C207.666,240.499 207.639,240.013 207.693,239.824 C207.639,239.554 207.585,239.338 207.531,239.176 C206.829,239.311 206.181,239.446 205.56,239.581 C205.101,239.689 204.696,239.797 204.372,239.851 C204.318,240.364 204.318,241.066 204.399,241.849 C204.399,241.903 204.399,241.957 204.399,242.011 M201.375,236.125 C201.645,236.233 201.834,236.287 201.942,236.233 C202.887,235.963 203.886,235.72 204.993,235.477 C205.155,235.423 205.236,235.45 205.29,235.558 C205.29,235.639 205.209,235.774 205.047,235.936 C204.507,236.422 203.886,236.989 203.184,237.637 C202.995,237.745 202.86,237.853 202.833,238.015 C202.779,238.204 202.644,238.231 202.428,238.096 C202.212,237.907 201.888,237.529 201.429,236.935 C201.051,236.341 201.024,236.071 201.375,236.125 M228.051,239.635 C227.943,242.362 227.862,245.386 227.862,248.734 C227.916,249.949 227.835,250.543 227.592,250.543 C226.836,250.354 226.269,250.138 225.837,249.841 C225.486,249.679 225.486,249.463 225.864,249.247 C226.242,249.058 226.431,248.788 226.431,248.437 C226.377,245.467 226.35,242.713 226.404,240.229 C225.972,240.634 225.567,241.201 225.135,241.903 C224.244,243.307 222.975,244.576 221.355,245.683 C221.085,245.791 220.842,245.845 220.626,245.845 C220.356,245.872 220.383,245.683 220.761,245.197 C222.273,243.496 223.569,241.795 224.676,240.013 C225.567,238.555 226.08,237.448 226.215,236.692 C226.107,236.719 225.999,236.773 225.918,236.773 C224.298,237.124 223.299,237.502 222.975,237.853 C222.759,238.177 222.435,237.826 222.03,236.746 C221.598,235.693 221.544,235.234 221.868,235.315 C222.03,235.369 223.542,235.072 226.512,234.397 C226.512,232.426 226.539,230.725 226.647,229.186 C226.701,228.727 226.674,228.403 226.593,228.214 C226.485,228.025 226.674,227.971 227.187,228.052 C227.835,228.16 228.348,228.295 228.807,228.43 C229.212,228.511 229.266,228.673 228.969,228.916 C228.672,229.186 228.51,229.645 228.51,230.239 C228.402,231.373 228.321,232.615 228.294,233.992 C228.564,233.938 228.834,233.884 229.104,233.803 C230.157,233.479 230.697,233.452 230.697,233.668 C230.697,233.938 230.724,234.289 230.778,234.64 C230.778,235.072 230.508,235.369 230.049,235.531 C229.455,235.747 228.834,235.963 228.186,236.179 C228.132,236.557 228.105,236.962 228.132,237.394 C228.186,237.475 228.24,237.556 228.348,237.637 C228.78,238.042 229.374,238.474 230.157,238.879 C230.427,239.014 230.481,239.365 230.346,239.905 C230.184,240.418 229.914,240.607 229.536,240.391 C228.861,239.986 228.348,239.743 228.051,239.635 M231.588,245.305 C231.588,241.768 231.696,239.095 231.966,237.259 C232.236,235.45 232.317,234.316 232.263,233.857 C232.209,233.506 232.398,233.29 232.911,233.182 C233.478,232.993 234.153,232.777 234.909,232.534 C235.503,232.318 236.151,232.156 236.907,231.994 C237.501,231.859 238.095,231.805 238.743,231.832 C240.849,231.913 241.767,232.237 241.551,232.858 C241.254,233.56 241.092,235.369 241.146,238.258 C241.146,241.174 241.2,243.766 241.362,246.061 C241.443,248.383 241.47,249.679 241.416,249.895 C239.742,249.436 238.176,248.437 236.772,246.898 C236.502,246.655 236.313,246.439 236.205,246.223 C234.045,246.736 232.803,247.195 232.506,247.627 C231.993,248.059 231.669,247.303 231.588,245.305 M239.202,242.794 C239.148,240.31 239.094,238.204 239.094,236.422 C239.04,234.613 238.824,233.614 238.473,233.398 C238.203,233.263 237.798,233.209 237.204,233.263 C236.475,233.317 235.827,233.479 235.314,233.803 C234.936,233.965 234.639,234.181 234.477,234.424 C234.207,234.532 233.937,235.342 233.721,236.773 C233.721,236.773 233.748,236.773 233.829,236.746 C234.666,236.584 235.584,236.368 236.529,236.125 C236.745,236.071 236.88,236.287 236.988,236.719 C237.042,237.205 236.961,237.475 236.826,237.529 C236.016,237.691 235.152,237.907 234.207,238.231 C233.937,238.312 233.694,238.42 233.505,238.555 C233.451,238.771 233.451,238.987 233.451,239.23 C233.343,239.77 233.262,240.256 233.262,240.715 C233.37,240.769 233.478,240.769 233.694,240.688 C234.585,240.472 235.53,240.229 236.502,239.986 C236.772,239.932 236.907,240.148 236.988,240.634 C237.042,241.147 236.988,241.417 236.853,241.471 C235.989,241.66 235.071,241.93 234.126,242.254 C233.694,242.362 233.37,242.524 233.127,242.767 C233.019,243.874 233.019,244.684 233.181,245.197 C233.289,245.305 233.667,245.251 234.423,245.008 C235.098,244.792 235.881,244.63 236.853,244.522 C237.15,244.468 237.312,244.684 237.366,245.197 C237.366,245.737 237.177,246.034 236.853,246.088 C238.068,247.033 238.824,247.411 239.094,247.141 C239.175,246.736 239.202,245.278 239.202,242.794 M255.105,234.208 C255.429,234.262 255.645,234.262 255.753,234.208 C256.752,233.722 257.832,233.263 259.047,232.75 C259.209,232.696 259.317,232.723 259.371,232.804 C259.425,232.912 259.344,233.074 259.209,233.29 C258.669,233.911 258.075,234.667 257.427,235.558 C257.211,235.666 257.076,235.828 257.076,236.044 C257.049,236.26 256.887,236.314 256.671,236.206 C256.347,236.044 255.915,235.666 255.321,235.099 C254.835,234.478 254.781,234.181 255.105,234.208 M260.397,235.909 C260.397,231.319 260.343,228.889 260.289,228.619 C260.019,227.809 260.424,227.512 261.531,227.674 C262.584,227.809 262.854,228.16 262.449,228.646 C262.287,228.835 262.206,230.077 262.233,232.318 C262.233,232.993 262.206,233.668 262.206,234.397 C262.584,233.965 263.016,233.479 263.61,232.966 C264.555,232.129 265.338,231.346 266.013,230.644 C266.094,230.158 266.337,230.131 266.769,230.509 C267.147,230.941 267.471,231.292 267.822,231.562 C268.092,231.886 268.119,232.102 267.957,232.156 C267.525,232.21 266.823,232.588 265.878,233.263 C264.933,233.857 263.691,234.559 262.206,235.396 C262.206,235.693 262.206,236.017 262.206,236.341 C263.151,236.125 264.366,235.828 265.905,235.423 C266.148,235.288 266.364,235.693 266.58,236.692 C266.742,237.691 266.418,238.015 265.689,237.718 C264.582,237.853 263.394,238.069 262.179,238.285 C262.179,238.744 262.179,239.176 262.179,239.635 C262.125,239.905 262.098,240.175 262.152,240.445 C262.368,240.418 262.611,240.391 262.854,240.364 C263.664,240.31 264.528,240.283 265.473,240.283 C266.418,240.283 267.012,240.256 267.228,240.202 C267.525,240.094 267.876,240.31 268.254,240.958 C268.551,241.579 268.686,242.146 268.686,242.551 C268.578,243.037 268.443,243.226 268.335,243.118 C267.417,242.74 266.283,242.524 264.96,242.416 C263.799,242.362 262.827,242.389 262.125,242.497 C262.071,244.09 262.017,245.656 261.963,247.114 C261.801,249.49 261.774,250.732 261.882,250.894 C262.206,251.407 261.963,251.623 261.207,251.488 C260.424,251.38 260.1,251.299 260.289,251.137 C260.451,251.002 260.505,250.462 260.532,249.544 C260.532,248.167 260.505,246.736 260.478,245.143 C260.451,244.576 260.424,243.793 260.424,242.848 C259.722,242.983 259.101,243.118 258.507,243.253 C257.508,243.469 256.725,243.631 256.131,243.766 C255.51,243.955 255.132,244.144 255.051,244.306 C254.754,244.657 254.43,244.522 254.106,243.766 C253.728,243.091 253.728,242.713 254.106,242.605 C254.754,242.497 255.942,242.173 257.724,241.579 C258.615,241.282 259.479,241.039 260.397,240.823 C260.397,240.148 260.397,239.446 260.397,238.69 C258.858,239.041 257.994,239.311 257.805,239.473 C257.103,240.013 256.698,240.094 256.59,239.716 C256.428,239.338 256.212,238.987 255.969,238.582 C255.726,238.204 255.726,238.015 255.969,237.961 C256.239,237.934 256.509,237.88 256.806,237.853 C257.643,237.583 258.831,237.232 260.397,236.8 C260.397,236.53 260.397,236.233 260.397,235.909 M249.813,238.15 C251.19,235.963 252.378,233.317 253.404,230.185 C253.458,229.915 253.539,229.618 253.701,229.321 C253.782,229.024 254.295,229.078 255.186,229.456 C256.023,229.861 256.239,230.158 255.834,230.401 C255.078,231.13 254.322,232.237 253.539,233.722 C252.675,235.207 252.108,236.26 251.838,236.827 C251.568,237.259 251.46,237.718 251.46,238.177 C251.973,238.393 252.513,238.663 253.08,238.987 C253.35,239.176 253.431,239.446 253.323,239.743 C253.107,240.472 252.999,241.741 252.999,243.469 C252.999,245.251 252.945,246.709 252.837,247.843 C252.783,248.14 252.81,248.437 252.918,248.707 C253.134,249.166 252.594,249.274 251.352,248.977 C251.028,248.896 250.92,248.734 251.055,248.464 C251.271,247.141 251.379,245.413 251.379,243.253 C251.325,241.795 251.244,240.634 251.163,239.743 C250.947,240.094 250.623,240.445 250.218,240.742 C249.354,241.363 248.301,242.092 247.032,242.821 C246.357,243.145 246.195,243.01 246.573,242.389 C247.356,241.228 248.436,239.851 249.813,238.15 Z" style="stroke:none;fill-rule:nonzero;fill:#f58227;fill-opacity:1;"/>
        </g>
    </g>
</svg>
